<svg width="20" height="20" viewBox="0 0 20 20" fill="none" xmlns="http://www.w3.org/2000/svg">
<path fill-rule="evenodd" clip-rule="evenodd" d="M19.1688 9.81813C19.1688 9.1374 19.1066 8.48286 18.991 7.85449H9.78003V11.5679H15.0434C14.8167 12.7679 14.1277 13.7847 13.0919 14.4654V16.8741H16.2526C18.1019 15.2029 19.1688 12.7418 19.1688 9.81813Z" fill="#4285F4"/>
<path fill-rule="evenodd" clip-rule="evenodd" d="M9.78005 19.1998C12.4206 19.1998 14.6345 18.3402 16.2526 16.874L13.0919 14.4653C12.2162 15.0413 11.0959 15.3816 9.78005 15.3816C7.2328 15.3816 5.07676 13.6929 4.30769 11.4238H1.04028V13.9111C2.64954 17.0486 5.95696 19.1998 9.78005 19.1998Z" fill="#34A853"/>
<path fill-rule="evenodd" clip-rule="evenodd" d="M4.30765 11.4243C4.11205 10.8483 4.00091 10.2331 4.00091 9.60034C4.00091 8.96761 4.11205 8.35234 4.30765 7.77634V5.28906H1.04024C0.377864 6.58506 0 8.05124 0 9.60034C0 11.1494 0.377864 12.6156 1.04024 13.9116L4.30765 11.4243Z" fill="#FBBC05"/>
<path fill-rule="evenodd" clip-rule="evenodd" d="M9.78005 3.81818C11.2159 3.81818 12.5051 4.30255 13.5187 5.25382L16.3238 2.50036C14.63 0.951273 12.4162 0 9.78005 0C5.95696 0 2.64954 2.15127 1.04028 5.28873L4.30769 7.776C5.07676 5.50691 7.2328 3.81818 9.78005 3.81818Z" fill="#EA4335"/>
</svg>
